<svg xmlns="http://www.w3.org/2000/svg" version="1.1" xmlns:xlink="http://www.w3.org/1999/xlink" width="512" height="512" x="0" y="0" viewBox="0 0 495.514 495.514" style="enable-background:new 0 0 512 512" xml:space="preserve" class=""><g><path fill="#000000" d="m409.772 370.025 78.873 78.873c9.159 9.159 9.159 24.008 0 33.167l-6.313 6.314c-9.159 9.159-24.008 9.159-33.167 0l-78.415-78.415-56.453-57.314 44.39-37.418z" opacity="1" data-original="#d7d0d6" class=""></path><circle cx="231.157" cy="231.423" r="231.157" fill="#009a67" opacity="1" data-original="#fee45a" class=""></circle><path fill="#bebeba" d="M83.14 211.685c0-47.187 14.143-91.068 38.417-127.643H53.08C19.929 124.048 0 175.406 0 231.423 0 359.088 103.493 462.58 231.157 462.58c33.546 0 65.428-7.154 94.197-20.006-3.661.172-7.353.268-11.057.268-127.664 0-231.157-103.492-231.157-231.157z" opacity="1" data-original="#fedf30" class=""></path><path fill="#97da7b" d="m395.514 229.299-258.38-2.466-58.986 84.67 4.289 33.068c5.12 6.58 10.68 12.8 16.62 18.61l64.832 16.575h148.257l44.691-16.575c30.74-30.07 51.01-70.83 54.78-116.27z" opacity="1" data-original="#97da7b" class=""></path><path fill="#80d261" d="m95.538 286.54-17.39 24.962 4.289 33.068c5.12 6.58 10.68 12.8 16.62 18.61l53.566 13.695c-25.516-24.977-45.274-55.81-57.085-90.335z" opacity="1" data-original="#80d261" class=""></path><path fill="#97da7b" d="M71.482 216.495 44.277 246.91c1.73 20.92 6.97 40.85 15.11 59.2h.01l39.365-6.294 38.372-70.518z" opacity="1" data-original="#97da7b" class=""></path><path fill="#80d261" d="M99.784 297.938c-9.89-24.575-15.682-51.237-16.525-79.146l-11.777-2.297-27.205 30.415c1.73 20.92 6.97 40.85 15.11 59.2h.01l39.365-6.294z" opacity="1" data-original="#80d261" class=""></path><path fill="#bebeba" d="M33.244 111.934a96.331 96.331 0 0 0 13.638 25.76l34.617 47.735a49.586 49.586 0 0 1 8.378 18.752l2.596 12.013c3.247 15.029 16.765 25.938 32.142 25.938 15.375 0 28.893-10.907 32.143-25.938l2.596-12.012a49.576 49.576 0 0 1 8.377-18.753l34.62-47.736c12.752-17.202 19.313-37.64 18.972-59.109-.395-24.994-10.382-48.606-28.12-66.488a98.595 98.595 0 0 0-8.054-7.244C120.799 17.849 66.138 57.568 33.244 111.934z" opacity="1" data-original="#fedf30" class=""></path><path fill="#97da7b" d="m353.02 119.958-8.772-31.538c-31.72-25.84-72.2-41.32-116.3-41.32-93.03 0-169.97 68.93-182.52 158.5h.01l37.581 21.233h217.876l68.415-52.546z" opacity="1" data-original="#97da7b" class=""></path><path fill="#80d261" d="M83.647 226.833a234.51 234.51 0 0 1-.507-15.147c0-47.187 14.143-91.068 38.417-127.643h-4.302C79.05 112.784 52.373 156.026 45.427 205.6h.01l37.581 21.233z" opacity="1" data-original="#80d261" class=""></path><path fill="#80d261" d="m156.757 216.195 2.596-12.012a49.576 49.576 0 0 1 8.377-18.753l34.62-47.736c12.752-17.202 19.313-37.64 18.972-59.109a96.006 96.006 0 0 0-5.677-31.074c-69.486 4.58-128.447 47.67-155.751 108.126l21.605 29.793a49.586 49.586 0 0 1 8.378 18.752l2.596 12.013a32.49 32.49 0 0 0 4.39 10.638h55.503a32.53 32.53 0 0 0 4.391-10.638z" opacity="1" data-original="#80d261" class=""></path><path fill="#97da7b" d="m373.517 118.36-24.878 3.657-61.258 92.156 69.199 15.126 53.887-23.699c-4.56-32.59-17.65-62.44-36.95-87.24z" opacity="1" data-original="#97da7b" class=""></path><path fill="#fdf6ec" d="M412.267 231.42c0 5.22-.22 10.38-.65 15.49h-253.04a9.244 9.244 0 0 0-7.46 3.785l-68.68 93.874a183.974 183.974 0 0 1-23.05-38.46h.01l40.708-55.643c1.081-1.478.026-3.557-1.805-3.557H44.277c-.43-5.11-.65-10.27-.65-15.49 0-8.76.61-17.38 1.8-25.82h212.296c.493 0 .956-.235 1.247-.633L344.237 88.43l.01-.01a184.655 184.655 0 0 1 29.27 29.94l-62.032 84.783c-.747 1.021-.018 2.457 1.247 2.457h97.736a184.908 184.908 0 0 1 1.799 25.82z" opacity="1" data-original="#fdf6ec" class=""></path><g fill="#fef1da"><path d="M106.098 312.23a229.49 229.49 0 0 1-16.732-47.084L59.397 306.11h-.01c6.12 13.8 13.89 26.7 23.05 38.46zM85.807 246.91a232.95 232.95 0 0 1-2.667-35.225c0-2.036.036-4.063.088-6.085H45.427c-1.19 8.44-1.8 17.06-1.8 25.82 0 5.22.22 10.38.65 15.49z" fill="#fef1da" opacity="1" data-original="#fef1da" class=""></path></g><path fill="#fef1da" d="M159.046 205.6H90.183l2.289 10.595c3.247 15.029 16.765 25.938 32.142 25.938 15.375 0 28.893-10.907 32.143-25.938z" opacity="1" data-original="#fef1da" class=""></path><path fill="#ee6161" d="M126.466 3.444C83.248 2.426 47.894 37.156 47.894 80.142c0 17.134 5.621 32.953 15.113 45.722l34.682 47.823a69.889 69.889 0 0 1 11.736 26.27l2.596 12.013c1.281 5.93 6.526 10.162 12.593 10.162s11.312-4.232 12.593-10.162l2.596-12.013a69.877 69.877 0 0 1 11.736-26.269l34.682-47.823c9.721-13.077 15.382-29.353 15.103-46.964-.647-40.941-33.925-74.493-74.858-75.457z" opacity="1" data-original="#ee6161" class=""></path><path fill="#e94444" d="M136.038 194.32a69.889 69.889 0 0 0-11.736-26.27L89.62 120.227c-9.493-12.769-15.113-28.588-15.113-45.722 0-32.108 19.728-59.602 47.72-71.041C80.961 4.726 47.894 38.57 47.894 80.142c0 17.134 5.621 32.953 15.113 45.722l34.682 47.823a69.889 69.889 0 0 1 11.736 26.27l2.596 12.013c1.281 5.93 6.526 10.162 12.593 10.162s11.312-4.232 12.593-10.162l1.323-6.12z" opacity="1" data-original="#e94444" class=""></path><path fill="#f9f7f8" d="M93.164 52.922c7.626-8.81 18.887-14.378 31.451-14.378 22.974 0 41.596 18.628 41.596 41.602a41.4 41.4 0 0 1-10.145 27.218c-7.626 8.81-18.887 14.378-31.451 14.378-22.974 0-41.596-18.622-41.596-41.596a41.424 41.424 0 0 1 10.145-27.224z" opacity="1" data-original="#f9f7f8" class=""></path><path fill="#fdf6ec" d="M356.837 363.18c-33.24 32.52-78.72 52.56-128.89 52.56s-95.65-20.04-128.89-52.56z" opacity="1" data-original="#fdf6ec" class=""></path><path fill="#fef1da" d="M139.703 363.18H99.057c27.487 26.892 63.349 45.236 103.307 50.785a232.163 232.163 0 0 1-62.661-50.785z" opacity="1" data-original="#fef1da" class=""></path><path fill="#fddeb0" d="M231.157 379.262a7.5 7.5 0 0 1-7.5-7.5v-58.675c0-4.142 3.357-7.5 7.5-7.5s7.5 3.358 7.5 7.5v58.675a7.5 7.5 0 0 1-7.5 7.5z" opacity="1" data-original="#fddeb0"></path><circle cx="231.157" cy="311.502" r="24.131" fill="#ee6161" opacity="1" data-original="#ee6161" class=""></circle></g></svg>